<svg width="41" height="40" viewBox="0 0 41 40" fill="none" xmlns="http://www.w3.org/2000/svg">
<mask id="mask0_41_80" style="mask-type:alpha" maskUnits="userSpaceOnUse" x="0" y="0" width="41" height="40">
<rect x="0.666748" width="40" height="40" fill="#D9D9D9"/>
</mask>
<g mask="url(#mask0_41_80)">
<path d="M9.08333 25.4998C9.34194 25.4404 9.59417 25.3908 9.84 25.3511C10.0856 25.3114 10.3671 25.2915 10.6846 25.2915H12.4167V6.74984H10.8333C10.3611 6.74984 9.95139 6.92345 9.60417 7.27067C9.25694 7.61789 9.08333 8.02762 9.08333 8.49984V25.4998ZM10.6667 38.0832C8.88417 38.0832 7.36917 37.4633 6.12167 36.2236C4.87389 34.9841 4.25 33.479 4.25 31.7082V8.49984C4.25 6.67123 4.89 5.11678 6.17 3.8365C7.45028 2.5565 9.00472 1.9165 10.8333 1.9165H21.5833V6.74984H17.25V25.2915H24.0833V22.4165H28.9167V29.9165H10.6667C10.2181 29.9165 9.84208 30.0762 9.53875 30.3957C9.23514 30.7151 9.08333 31.111 9.08333 31.5832C9.08333 32.0554 9.23514 32.4512 9.53875 32.7707C9.84208 33.0901 10.2181 33.2498 10.6667 33.2498H32.25V20.7498H37.0833V38.0832H10.6667ZM29.8333 20.7498C29.8333 17.9851 30.795 15.6412 32.7183 13.7182C34.6414 11.7948 36.9853 10.8332 39.75 10.8332C36.9853 10.8332 34.6414 9.87151 32.7183 7.94817C30.795 6.02512 29.8333 3.68123 29.8333 0.916504C29.8333 3.68123 28.8717 6.02512 26.9483 7.94817C25.0253 9.87151 22.6814 10.8332 19.9167 10.8332C22.6814 10.8332 25.0253 11.7948 26.9483 13.7182C28.8717 15.6412 29.8333 17.9851 29.8333 20.7498Z" fill="#F2F2F2"/>
</g>
</svg>
