<svg width="40" height="40" viewBox="0 0 40 40" fill="none" xmlns="http://www.w3.org/2000/svg">
<mask id="mask0_42_68" style="mask-type:alpha" maskUnits="userSpaceOnUse" x="0" y="0" width="40" height="40">
<rect width="40" height="40" fill="#D9D9D9"/>
</mask>
<g mask="url(#mask0_42_68)">
<path d="M7.12484 38.0833C5.69262 38.0833 4.4665 37.5694 3.4465 36.5417C2.4265 35.5139 1.9165 34.2917 1.9165 32.875V8.79167C1.9165 7.35944 2.4265 6.13333 3.4465 5.11333C4.4665 4.09333 5.69262 3.58333 7.12484 3.58333H8.37484V1.91667C8.37484 1.44444 8.54845 1.04861 8.89567 0.729167C9.24289 0.409722 9.65262 0.25 10.1248 0.25H17.0832C17.5671 0.25 17.9728 0.409722 18.3003 0.729167C18.6278 1.04861 18.7915 1.44444 18.7915 1.91667V3.58333H20.0832C21.3887 3.58333 22.4929 4.02083 23.3957 4.89583C24.2984 5.77083 24.7498 6.84722 24.7498 8.125H38.0832V33.5H24.7498C24.7498 34.7603 24.2984 35.8393 23.3957 36.7371C22.4929 37.6346 21.3887 38.0833 20.0832 38.0833H7.12484ZM7.1665 32.8333H20.0832V28.25H32.8332V13.375H20.0832V8.83333H7.1665V32.8333ZM14.1665 26.5833H18.1665V22.5833H14.1665V26.5833ZM14.1665 19.0417H18.1665V15.0417H14.1665V19.0417ZM20.6665 26.5833H24.6665V22.5833H20.6665V26.5833ZM20.6665 19.0417H24.6665V15.0417H20.6665V19.0417ZM27.1665 26.5833H31.1665V22.5833H27.1665V26.5833ZM27.1665 19.0417H31.1665V15.0417H27.1665V19.0417Z" fill="#F2F2F2"/>
</g>
</svg>
