<svg width="119" height="74" viewBox="0 0 119 74" fill="none" xmlns="http://www.w3.org/2000/svg">
<path d="M3.18813 60.1053C2.32234 60.1053 1.57463 59.7903 0.945 59.1603C0.315 58.5307 0 57.783 0 56.9172V23.504C0 22.6382 0.315 21.8905 0.945 21.2608C1.57463 20.6308 2.32234 20.3158 3.18813 20.3158H6.63158V17.9351C6.63158 17.357 6.82721 16.8726 7.21847 16.4817C7.60937 16.0904 8.09384 15.8948 8.6719 15.8948H15.6439C16.2219 15.8948 16.7064 16.0904 17.0973 16.4817C17.4886 16.8726 17.6842 17.357 17.6842 17.9351V20.3158H21.1277C21.9934 20.3158 22.7412 20.6308 23.3708 21.2608C24.0008 21.8905 24.3158 22.6382 24.3158 23.504V24.7369H42V55.6842H24.2732V56.9172C24.2732 57.783 23.9652 58.5307 23.3492 59.1603C22.7332 59.7903 21.9927 60.1053 21.1277 60.1053H3.18813ZM3.18813 57.5969H21.1277C21.3259 57.5969 21.4887 57.5332 21.6162 57.4057C21.7437 57.2782 21.8074 57.1154 21.8074 56.9172V53.1759H39.4916V27.2453H21.8074V23.504C21.8074 23.3057 21.7437 23.1429 21.6162 23.0154C21.4887 22.888 21.3259 22.8242 21.1277 22.8242H3.18813C2.98992 22.8242 2.82708 22.888 2.69961 23.0154C2.57213 23.1429 2.50839 23.3057 2.50839 23.504V56.9172C2.50839 57.1154 2.57213 57.2782 2.69961 57.4057C2.82708 57.5332 2.98992 57.5969 3.18813 57.5969ZM15.6439 49.9452H18.7469V46.8421H15.6439V49.9452ZM15.6439 33.579H18.7469V30.476H15.6439V33.579ZM24.4009 49.9452H27.5039V46.8421H24.4009V49.9452ZM24.4009 33.579H27.5039V30.476H24.4009V33.579ZM33.1579 49.9452H36.2609V46.8421H33.1579V49.9452ZM33.1579 33.579H36.2609V30.476H33.1579V33.579Z" fill="#F2F2F2"/>
<path d="M65.0656 55H59.0256V42.68H47.7056V55H41.6656V26.44H47.7056V37.64H59.0256V26.44H65.0656V55ZM79.5716 31.08C78.4249 31.08 77.3982 31.3067 76.4916 31.76C75.6116 32.2133 74.8649 32.8667 74.2516 33.72C73.6382 34.5467 73.1716 35.56 72.8516 36.76C72.5582 37.96 72.4116 39.3067 72.4116 40.8C72.4116 42.8267 72.6516 44.56 73.1316 46C73.6382 47.4133 74.4249 48.4933 75.4916 49.24C76.5582 49.9867 77.9182 50.36 79.5716 50.36C80.7449 50.36 81.9049 50.2267 83.0516 49.96C84.2249 49.6933 85.4916 49.32 86.8516 48.84V53.92C85.5982 54.4267 84.3582 54.8 83.1316 55.04C81.9049 55.28 80.5316 55.4 79.0116 55.4C76.0782 55.4 73.6516 54.8 71.7316 53.6C69.8382 52.3733 68.4382 50.6667 67.5316 48.48C66.6249 46.2667 66.1716 43.6933 66.1716 40.76C66.1716 38.6 66.4649 36.6267 67.0516 34.84C67.6382 33.0267 68.4916 31.4667 69.6116 30.16C70.7582 28.8533 72.1582 27.84 73.8116 27.12C75.4916 26.4 77.4116 26.04 79.5716 26.04C80.9849 26.04 82.3982 26.2267 83.8116 26.6C85.2516 26.9467 86.6249 27.4267 87.9316 28.04L85.9716 32.96C84.9049 32.4533 83.8249 32.0133 82.7316 31.64C81.6649 31.2667 80.6116 31.08 79.5716 31.08ZM104.44 26.04V29.56C107.56 29.64 110.04 30.1867 111.88 31.2C113.747 32.1867 115.08 33.4667 115.88 35.04C116.707 36.6133 117.12 38.3333 117.12 40.2C117.12 41.4 116.907 42.6267 116.48 43.88C116.08 45.1333 115.387 46.2933 114.4 47.36C113.44 48.4 112.147 49.2533 110.52 49.92C108.894 50.5867 106.867 50.9467 104.44 51V55.4H99.0003V51C96.547 50.9467 94.4936 50.5867 92.8403 49.92C91.2136 49.2533 89.9203 48.3867 88.9603 47.32C88.0003 46.2533 87.3203 45.1067 86.9203 43.88C86.5203 42.6267 86.3203 41.4 86.3203 40.2C86.3203 38.8133 86.547 37.4933 87.0003 36.24C87.4536 34.9867 88.1736 33.8667 89.1603 32.88C90.147 31.8933 91.4536 31.1067 93.0803 30.52C94.707 29.9333 96.6803 29.6133 99.0003 29.56V26.04H104.44ZM99.0003 34.28C97.267 34.36 95.8803 34.6667 94.8403 35.2C93.827 35.7067 93.0936 36.3867 92.6403 37.24C92.2136 38.0933 92.0003 39.0667 92.0003 40.16C92.0003 41.36 92.2403 42.4133 92.7203 43.32C93.227 44.2 93.987 44.9067 95.0003 45.44C96.0403 45.9467 97.3736 46.24 99.0003 46.32V34.28ZM104.44 46.32C106.067 46.24 107.387 45.9467 108.4 45.44C109.44 44.9067 110.2 44.2 110.68 43.32C111.187 42.4133 111.44 41.36 111.44 40.16C111.44 39.0667 111.214 38.0933 110.76 37.24C110.334 36.3867 109.6 35.7067 108.56 35.2C107.547 34.6667 106.174 34.36 104.44 34.28V46.32Z" fill="#F2F2F2"/>
</svg>
