<svg width="41" height="40" viewBox="0 0 41 40" fill="none" xmlns="http://www.w3.org/2000/svg">
<mask id="mask0_41_104" style="mask-type:alpha" maskUnits="userSpaceOnUse" x="0" y="0" width="41" height="40">
<rect x="0.333008" width="40" height="40" fill="#D9D9D9"/>
</mask>
<g mask="url(#mask0_41_104)">
<path d="M11.6663 33.9583C10.6386 33.9583 9.77745 33.6111 9.08301 32.9167C8.38856 32.2222 8.04134 31.3611 8.04134 30.3333C8.04134 29.6111 8.24967 28.9375 8.66634 28.3125C9.08301 27.6875 9.61079 27.25 10.2497 27L16.3747 24.5417V22.2083C14.8747 23.6806 13.1455 24.7917 11.1872 25.5417C9.22884 26.2917 7.06912 26.6667 4.70801 26.6667V22.0417C6.70801 22.0417 8.49967 21.6806 10.083 20.9583C11.6663 20.2361 13.0275 19.1806 14.1663 17.7917L16.4163 15.0833C16.8052 14.6111 17.2636 14.2639 17.7913 14.0417C18.3191 13.8194 18.8886 13.7083 19.4997 13.7083H21.1663C21.7775 13.7083 22.3469 13.8264 22.8747 14.0625C23.4025 14.2986 23.8608 14.6528 24.2497 15.125L26.4997 17.875C27.6386 19.2639 28.9997 20.3056 30.583 21C32.1663 21.6944 33.958 22.0417 35.958 22.0417V26.6667C33.5969 26.6667 31.4372 26.2917 29.4788 25.5417C27.5205 24.7917 25.7913 23.6806 24.2913 22.2083V24.5417L30.4163 27C31.0552 27.25 31.583 27.6875 31.9997 28.3125C32.4163 28.9375 32.6247 29.6111 32.6247 30.3333C32.6247 31.3611 32.2775 32.2222 31.583 32.9167C30.8886 33.6111 30.0275 33.9583 28.9997 33.9583H16.9997V32.5C16.9997 31.6944 17.2566 31.0764 17.7705 30.6458C18.2844 30.2153 18.8608 30 19.4997 30H24.4997C24.7497 30 24.9511 29.9236 25.1038 29.7708C25.2566 29.6181 25.333 29.4167 25.333 29.1667C25.333 28.9167 25.2566 28.7153 25.1038 28.5625C24.9511 28.4097 24.7497 28.3333 24.4997 28.3333H19.4997C18.3608 28.3333 17.3816 28.7361 16.5622 29.5417C15.7427 30.3472 15.333 31.3333 15.333 32.5V33.9583H11.6663ZM20.333 12.0417C19.2219 12.0417 18.2844 11.6597 17.5205 10.8958C16.7566 10.1319 16.3747 9.19444 16.3747 8.08333C16.3747 6.97222 16.7566 6.03472 17.5205 5.27083C18.2844 4.50694 19.2219 4.125 20.333 4.125C21.4441 4.125 22.3816 4.50694 23.1455 5.27083C23.9094 6.03472 24.2913 6.97222 24.2913 8.08333C24.2913 9.19444 23.9094 10.1319 23.1455 10.8958C22.3816 11.6597 21.4441 12.0417 20.333 12.0417Z" fill="#F2F2F2"/>
</g>
</svg>
