<svg width="112" height="24" viewBox="0 0 112 24" fill="none" xmlns="http://www.w3.org/2000/svg">
<path d="M22.6288 7.61031C22.6168 6.71055 22.4484 5.81973 22.131 4.9777C21.8558 4.26746 21.4355 3.62243 20.8969 3.08383C20.3583 2.54523 19.7133 2.1249 19.003 1.8497C18.1718 1.53768 17.2937 1.36897 16.4061 1.35074C15.2632 1.29966 14.9009 1.2854 11.9998 1.2854C9.09867 1.2854 8.72682 1.2854 7.59228 1.35074C6.70504 1.3691 5.82733 1.53781 4.9965 1.8497C4.28615 2.12471 3.64102 2.54497 3.1024 3.0836C2.56377 3.62222 2.14351 4.26735 1.8685 4.9777C1.55585 5.80827 1.38751 6.68618 1.37073 7.57348C1.31964 8.71753 1.3042 9.07987 1.3042 11.981C1.3042 14.8821 1.3042 15.2527 1.37073 16.3884C1.38855 17.2771 1.55606 18.1538 1.8685 18.9866C2.14397 19.6967 2.56454 20.3416 3.10335 20.88C3.64215 21.4184 4.28734 21.8385 4.99769 22.1134C5.82624 22.438 6.7041 22.6188 7.59347 22.648C8.73752 22.6991 9.09986 22.7145 12.001 22.7145C14.902 22.7145 15.2739 22.7145 16.4084 22.648C17.296 22.6305 18.1742 22.4622 19.0054 22.1502C19.7155 21.8747 20.3603 21.4543 20.8989 20.9157C21.4374 20.3772 21.8579 19.7323 22.1334 19.0222C22.4458 18.1906 22.6134 17.3139 22.6312 16.4241C22.6823 15.2812 22.6977 14.9189 22.6977 12.0166C22.6953 9.11551 22.6953 8.74723 22.6288 7.61031ZM11.9926 17.4671C8.95848 17.4671 6.50051 15.0092 6.50051 11.975C6.50051 8.94087 8.95848 6.4829 11.9926 6.4829C13.4492 6.4829 14.8462 7.06153 15.8762 8.09151C16.9061 9.12148 17.4848 10.5184 17.4848 11.975C17.4848 13.4316 16.9061 14.8286 15.8762 15.8585C14.8462 16.8885 13.4492 17.4671 11.9926 17.4671ZM17.7034 7.56042C17.5351 7.56057 17.3685 7.52755 17.2131 7.46325C17.0576 7.39895 16.9164 7.30462 16.7974 7.18567C16.6785 7.06672 16.5842 6.92547 16.5199 6.77003C16.4555 6.61458 16.4225 6.44798 16.4227 6.27975C16.4227 6.11165 16.4558 5.9452 16.5201 5.78989C16.5845 5.63459 16.6787 5.49347 16.7976 5.37461C16.9165 5.25574 17.0576 5.16145 17.2129 5.09712C17.3682 5.03279 17.5347 4.99968 17.7028 4.99968C17.8709 4.99968 18.0373 5.03279 18.1926 5.09712C18.3479 5.16145 18.489 5.25574 18.6079 5.37461C18.7268 5.49347 18.8211 5.63459 18.8854 5.78989C18.9497 5.9452 18.9828 6.11165 18.9828 6.27975C18.9828 6.9878 18.4102 7.56042 17.7034 7.56042Z" fill="#F2F2F2"/>
<path d="M11.9926 15.5426C13.9629 15.5426 15.5602 13.9453 15.5602 11.975C15.5602 10.0047 13.9629 8.40746 11.9926 8.40746C10.0223 8.40746 8.42507 10.0047 8.42507 11.975C8.42507 13.9453 10.0223 15.5426 11.9926 15.5426Z" fill="#F2F2F2"/>
<g clip-path="url(#clip0_44_1905)">
<path d="M56 0C49.376 0 44 5.376 44 12C44 18.624 49.376 24 56 24C62.624 24 68 18.624 68 12C68 5.376 62.624 0 56 0ZM61.568 8.16C61.388 10.056 60.608 14.664 60.212 16.788C60.044 17.688 59.708 17.988 59.396 18.024C58.7 18.084 58.172 17.568 57.5 17.124C56.444 16.428 55.844 15.996 54.824 15.324C53.636 14.544 54.404 14.112 55.088 13.416C55.268 13.236 58.34 10.44 58.4 10.188C58.4083 10.1498 58.4072 10.1102 58.3968 10.0726C58.3863 10.0349 58.3668 10.0004 58.34 9.972C58.268 9.912 58.172 9.936 58.088 9.948C57.98 9.972 56.3 11.088 53.024 13.296C52.544 13.62 52.112 13.788 51.728 13.776C51.296 13.764 50.48 13.536 49.868 13.332C49.112 13.092 48.524 12.96 48.572 12.54C48.596 12.324 48.896 12.108 49.46 11.88C52.964 10.356 55.292 9.348 56.456 8.868C59.792 7.476 60.476 7.236 60.932 7.236C61.028 7.236 61.256 7.26 61.4 7.38C61.52 7.476 61.556 7.608 61.568 7.704C61.556 7.776 61.58 7.992 61.568 8.16Z" fill="#F2F2F2"/>
</g>
<g clip-path="url(#clip1_44_1905)">
<path d="M100 0C93.3725 0 88 5.3725 88 12C88 18.6275 93.3725 24 100 24C106.628 24 112 18.6275 112 12C112 5.3725 106.628 0 100 0ZM104.615 13.5388C104.615 13.5388 105.676 14.5863 105.938 15.0725C105.945 15.0825 105.949 15.0925 105.951 15.0975C106.058 15.2762 106.083 15.415 106.03 15.5188C105.943 15.6912 105.642 15.7763 105.54 15.7838H103.665C103.535 15.7838 103.262 15.75 102.932 15.5225C102.679 15.345 102.429 15.0538 102.185 14.77C101.821 14.3475 101.506 13.9825 101.189 13.9825C101.148 13.9824 101.108 13.9888 101.07 14.0013C100.83 14.0788 100.523 14.4213 100.523 15.3337C100.523 15.6188 100.298 15.7825 100.139 15.7825H99.28C98.9875 15.7825 97.4637 15.68 96.1137 14.2563C94.4612 12.5125 92.9737 9.015 92.9612 8.9825C92.8675 8.75625 93.0612 8.635 93.2725 8.635H95.1662C95.4187 8.635 95.5012 8.78875 95.5588 8.925C95.6262 9.08375 95.8738 9.715 96.28 10.425C96.9388 11.5825 97.3425 12.0525 97.6663 12.0525C97.727 12.0518 97.7866 12.0363 97.84 12.0075C98.2625 11.7725 98.1838 10.2662 98.165 9.95375C98.165 9.895 98.1637 9.28 97.9475 8.985C97.7925 8.77125 97.5287 8.69 97.3687 8.66C97.4335 8.57064 97.5188 8.49818 97.6175 8.44875C97.9075 8.30375 98.43 8.2825 98.9488 8.2825H99.2375C99.8 8.29 99.945 8.32625 100.149 8.3775C100.561 8.47625 100.57 8.7425 100.534 9.65375C100.523 9.9125 100.511 10.205 100.511 10.55C100.511 10.625 100.508 10.705 100.508 10.79C100.495 11.2537 100.48 11.78 100.808 11.9963C100.85 12.023 100.9 12.0373 100.95 12.0375C101.064 12.0375 101.406 12.0375 102.334 10.4463C102.62 9.93407 102.868 9.40185 103.078 8.85375C103.096 8.82125 103.151 8.72125 103.216 8.6825C103.264 8.65804 103.317 8.64561 103.371 8.64625H105.597C105.84 8.64625 106.006 8.6825 106.038 8.77625C106.093 8.925 106.028 9.37875 105.011 10.755L104.558 11.3538C103.636 12.5613 103.636 12.6225 104.615 13.5388Z" fill="#F2F2F2"/>
</g>
<defs>
<clipPath id="clip0_44_1905">
<rect width="24" height="24" fill="white" transform="translate(44)"/>
</clipPath>
<clipPath id="clip1_44_1905">
<rect width="24" height="24" fill="white" transform="translate(88)"/>
</clipPath>
</defs>
</svg>
